# Wavefront Obj file
# 
# verts: 42 uv-s: 126
mtllib frame.mtl

g Box002
#pivot 0.000000 0.000000 0.000000

v 33.596802 -5.236301 5.018600
v 33.596802 82.510696 0.000000
v 33.596802 82.510696 5.018600
v -23.033600 71.864799 5.018600
v -33.596802 82.510696 5.018600
v 25.685801 71.864799 5.018600
v 25.685801 4.356102 1.569100
v 25.685801 4.356102 5.018600
v -23.033600 4.356102 5.018600
v -33.596802 -5.236301 1.569100
v 33.058300 -5.236301 0.000000
v -23.033600 4.356102 1.569100
v -23.033600 71.864799 1.569100
v -33.596802 -5.236301 5.018600
v 25.685801 71.864799 1.569100
v -33.596802 82.510696 1.569100
v 33.596802 -5.236301 0.000000
v 33.058300 82.510696 0.000000
v -34.135300 -5.236301 1.569100
v -34.135300 82.510696 1.569100
v 33.058300 82.510696 -1.593000
v 4.783300 43.691799 -1.593000
v -34.135300 -5.236301 -1.593000
v -8.875100 43.691799 -1.593000
v -34.135300 82.510696 -1.593000
v 11.913200 7.351299 -16.030199
v -16.005100 7.351299 -16.030199
v 4.778300 43.880501 -2.326600
v 4.778300 43.719398 -1.593000
v -8.870100 43.880501 -2.326600
v 11.913200 7.514599 -16.773899
v -16.005100 7.514599 -16.773899
v 33.058300 -5.236301 -1.593000
v -8.870100 43.719398 -1.593000
v 0.073600 -5.329498 -21.876499
v 12.688700 7.224400 -16.080601
v 0.073600 -5.492802 -21.132799
v 12.688700 7.387699 -16.824301
v -16.780600 7.224400 -16.080601
v -16.780600 7.387699 -16.824301
v -4.165500 -5.329498 -21.876499
v -4.165500 -5.492802 -21.132799
# 42 positions

vt 0.297088 0.531701
vt 0.788492 0.503596
vt 0.788492 0.531701
vt 0.064156 0.436784
vt 0.381300 0.496404
vt 0.005000 0.496404
vt 0.297088 0.607780
vt 0.675153 0.627098
vt 0.675153 0.607780
vt 0.771499 0.880621
vt 0.790817 0.607780
vt 0.790817 0.880621
vt 0.726848 0.607780
vt 0.746166 0.984081
vt 0.754954 0.610796
vt 0.675153 0.653144
vt 0.297088 0.633826
vt 0.675153 0.633826
vt 0.297088 0.555688
vt 0.788492 0.575006
vt 0.788492 0.555688
vt 0.782661 0.277840
vt 0.801979 0.005000
vt 0.782661 0.005000
vt 0.719224 0.987096
vt 0.699906 0.610796
vt 0.719224 0.610796
vt 0.771499 0.496404
vt 0.774514 0.005000
vt 0.771499 0.005000
vt 0.285925 0.503596
vt 0.288941 0.995000
vt 0.285925 0.995000
vt 0.297088 0.547866
vt 0.788492 0.538944
vt 0.788492 0.547866
vt 0.546596 0.222395
vt 0.764549 0.496404
vt 0.623086 0.222395
vt 0.297088 0.599443
vt 0.788492 0.581734
vt 0.297088 0.581734
vt 0.005000 0.881661
vt 0.277840 0.503596
vt 0.277840 0.881661
vt 0.579946 0.659873
vt 0.463527 0.863388
vt 0.423598 0.659873
vt 0.314560 0.151411
vt 0.315617 0.147303
vt 0.314714 0.151411
vt 0.083138 0.166858
vt 0.087246 0.243292
vt 0.083138 0.243292
vt 0.413480 0.659873
vt 0.297088 0.863530
vt 0.453437 0.863530
vt 0.098466 0.178020
vt 0.094301 0.334369
vt 0.098466 0.334369
vt 0.073033 0.066394
vt 0.071976 0.070503
vt 0.275633 0.151411
vt 0.297088 0.503596
vt 0.336997 0.058720
vt 0.381300 0.005000
vt 0.336997 0.436784
vt 0.005000 0.005000
vt 0.064156 0.058720
vt 0.297088 0.627098
vt 0.771499 0.607780
vt 0.763875 0.987096
vt 0.746166 0.987096
vt 0.763875 0.610796
vt 0.754954 0.607780
vt 0.726848 0.984081
vt 0.297088 0.653144
vt 0.297088 0.575006
vt 0.801979 0.277840
vt 0.682198 0.607780
vt 0.699906 0.607780
vt 0.682198 0.984081
vt 0.691119 0.984081
vt 0.691119 0.987096
vt 0.774514 0.496404
vt 0.288941 0.503596
vt 0.297088 0.538944
vt 0.623058 0.222240
vt 0.764549 0.005000
vt 0.388249 0.005000
vt 0.546624 0.222240
vt 0.388249 0.496404
vt 0.788492 0.599443
vt 0.005000 0.503596
vt 0.540017 0.863388
vt 0.111959 0.066394
vt 0.111045 0.070559
vt 0.087246 0.166858
vt 0.337045 0.659873
vt 0.094301 0.178020
vt 0.276547 0.147246
vt 0.072878 0.066394
vt 0.084052 0.105463
vt 0.154358 0.137922
vt 0.083138 0.109628
vt 0.071976 0.246313
vt 0.076141 0.081278
vt 0.076141 0.246313
vt 0.153786 0.221333
vt 0.248173 0.150114
vt 0.083138 0.150114
vt 0.154358 0.121178
vt 0.084052 0.088720
vt 0.083138 0.092884
vt 0.127789 0.284588
vt 0.222176 0.213369
vt 0.292824 0.284588
vt 0.163137 0.142226
vt 0.167302 0.118486
vt 0.163137 0.118486
vt 0.155272 0.133757
vt 0.071976 0.081278
vt 0.177526 0.221333
vt 0.155272 0.117013
vt 0.198436 0.213369
vt 0.167302 0.142226
# 126 texture coordinates

vn 1.000000 0.000000 0.000000
vn 0.000000 0.000000 1.000000
vn -1.000000 0.000000 0.000000
vn 0.000000 1.000000 0.000000
vn 0.000000 -1.000000 0.000000
vn 0.000000 -1.000000 0.000000
vn 0.000000 0.000000 -1.000000
vn 0.000000 -0.369206 0.929348
vn 0.983293 0.177794 0.039035
vn 0.000000 0.976728 0.214481
vn 0.000000 0.369206 -0.929348
vn 0.000000 -0.976731 -0.214468
vn -0.983315 0.177682 0.039010
vn 0.000000 -0.369206 0.929348
vn 0.983357 0.177455 0.038958
vn 0.730769 -0.666740 -0.146402
vn -0.730769 -0.666740 -0.146403
vn 0.000000 -0.976730 -0.214473
# 18 normals

usemtl wire_088088225
f 1/1/1 2/2/1 3/3/1
f 4/4/2 3/5/2 5/6/2
f 6/7/3 7/8/3 8/9/3
f 7/10/4 9/11/4 8/12/4
f 1/13/5 10/14/5 11/15/5
f 4/16/1 12/17/1 13/18/1
f 5/19/3 10/20/3 14/21/3
f 4/22/6 15/23/6 6/24/6
f 3/25/4 16/26/4 5/27/4
f 17/28/7 18/29/7 2/30/7
f 19/31/2 16/32/2 20/33/2
f 11/34/1 21/35/1 18/36/1
f 22/37/7 23/38/7 24/39/7
f 25/40/3 19/41/3 20/42/3
f 13/43/2 7/44/2 15/45/2
f 26/46/8 24/47/8 27/48/8
f 22/49/9 28/50/9 29/51/9
f 30/52/10 29/53/10 28/54/10
f 30/55/11 31/56/11 32/57/11
f 31/58/12 27/59/12 32/60/12
f 24/61/13 30/62/13 32/63/13
f 2/2/1 1/1/1 17/64/1
f 3/5/2 8/65/2 1/66/2
f 3/5/2 6/67/2 8/65/2
f 8/65/2 14/68/2 1/66/2
f 9/69/2 14/68/2 8/65/2
f 9/69/2 5/6/2 14/68/2
f 4/4/2 5/6/2 9/69/2
f 3/5/2 4/4/2 6/67/2
f 7/8/3 6/7/3 15/70/3
f 9/11/4 7/10/4 12/71/4
f 23/72/5 10/14/5 19/73/5
f 33/74/5 10/14/5 23/72/5
f 11/15/5 10/14/5 33/74/5
f 1/13/5 11/15/5 17/75/5
f 10/14/5 1/13/5 14/76/5
f 12/17/1 4/16/1 9/77/1
f 10/20/3 5/19/3 16/78/3
f 15/23/6 4/22/6 13/79/6
f 16/26/4 25/80/4 20/81/4
f 16/26/4 21/82/4 25/80/4
f 16/26/4 18/83/4 21/82/4
f 18/83/4 3/25/4 2/84/4
f 16/26/4 3/25/4 18/83/4
f 18/29/7 17/28/7 11/85/7
f 16/32/2 19/31/2 10/86/2
f 21/35/1 11/34/1 33/87/1
f 34/88/7 23/38/7 25/89/7
f 24/39/7 23/38/7 34/88/7
f 21/90/7 34/88/7 25/89/7
f 21/90/7 29/91/7 34/88/7
f 33/92/7 29/91/7 21/90/7
f 33/92/7 22/37/7 29/91/7
f 23/38/7 22/37/7 33/92/7
f 19/41/3 25/40/3 23/93/3
f 7/44/2 13/43/2 12/94/2
f 24/47/8 26/46/8 22/95/14
f 31/96/15 22/49/9 26/97/15
f 28/50/9 22/49/9 31/96/15
f 29/53/10 30/52/10 34/98/10
f 31/56/11 30/55/11 28/99/11
f 27/59/12 31/58/12 26/100/12
f 24/61/13 32/63/13 27/101/13
f 30/62/13 24/61/13 34/102/13
f 35/103/16 36/104/16 37/105/16
f 38/106/10 39/107/10 36/108/10
f 35/109/11 40/110/11 38/111/11
f 41/112/17 39/113/17 40/114/17
f 39/115/8 37/116/8 36/117/8
f 42/118/18 35/119/18 37/120/18
f 36/104/16 35/103/16 38/121/16
f 39/107/10 38/106/10 40/122/10
f 40/110/11 35/109/11 41/123/11
f 39/113/17 41/112/17 42/124/17
f 37/116/8 39/115/8 42/125/14
f 35/119/18 42/118/18 41/126/18

# 76 faces
