# Wavefront Obj file
# 
# verts: 18 uv-s: 54
mtllib laptop.mtl

g Box001
#pivot 0.000000 0.000000 0.000000

v -88.932800 0.000000 29.644302
v 28.853802 0.000000 -39.130402
v 28.853802 0.000000 29.644302
v -88.932800 3.952600 29.644302
v -88.932800 0.000000 -39.130402
v 28.853802 3.952600 -39.130402
v -88.932800 3.952600 -28.456200
v 28.853802 3.952600 29.644302
v 28.853802 3.952600 -28.456200
v 28.853802 3.952600 -37.870800
v -88.932800 3.952600 -39.130402
v -88.932800 3.952600 -37.870800
v 28.853802 4.249500 -37.994900
v 28.853802 27.125500 26.984100
v 28.853802 30.772301 25.459801
v -88.932800 27.125500 26.984100
v -88.932800 30.772301 25.459801
v -88.932800 4.249500 -37.994900
# 18 positions

vt 0.005000 0.496054
vt 0.291723 0.005000
vt 0.005000 0.005000
vt 0.767344 0.560859
vt 0.276290 0.577338
vt 0.276290 0.560859
vt 0.767344 0.552675
vt 0.276290 0.536197
vt 0.276290 0.552675
vt 0.299055 0.005000
vt 0.541277 0.496054
vt 0.299055 0.496054
vt 0.422250 0.827744
vt 0.438728 0.585522
vt 0.422250 0.585522
vt 0.780487 0.995000
vt 0.775235 0.503945
vt 0.780487 0.503945
vt 0.767344 0.527949
vt 0.276290 0.526711
vt 0.276290 0.527949
vt 0.276290 0.872245
vt 0.292768 0.630023
vt 0.292768 0.872245
vt 0.549477 0.005000
vt 0.780608 0.496054
vt 0.780608 0.005000
vt 0.767344 0.519149
vt 0.276290 0.503945
vt 0.767344 0.503945
vt 0.269544 0.503945
vt 0.005000 0.995000
vt 0.005000 0.503945
vt 0.291723 0.496054
vt 0.767344 0.577338
vt 0.767344 0.536197
vt 0.541277 0.005000
vt 0.422250 0.866994
vt 0.310438 0.602967
vt 0.421012 0.867511
vt 0.325642 0.596613
vt 0.438728 0.872245
vt 0.422250 0.872245
vt 0.775235 0.995000
vt 0.767344 0.526711
vt 0.404580 0.854800
vt 0.292768 0.590773
vt 0.294006 0.590256
vt 0.389377 0.861155
vt 0.276290 0.585522
vt 0.292768 0.585522
vt 0.549477 0.496054
vt 0.276290 0.519149
vt 0.269544 0.995000
# 54 texture coordinates

vn 0.000000 -1.000000 0.000000
vn 0.000000 0.000000 1.000000
vn 0.000000 0.000000 -1.000000
vn 0.000000 1.000000 0.000000
vn -1.000000 0.000000 0.000000
vn 0.000000 -0.385652 -0.922644
vn 1.000000 0.000000 0.000000
vn 0.000000 -0.922646 0.385647
vn 0.000000 0.385650 0.922645
vn 0.000000 0.922646 -0.385648
# 10 normals

usemtl wire_184155229
f 1/1/1 2/2/1 3/3/1
f 3/4/2 4/5/2 1/6/2
f 5/7/3 6/8/3 2/9/3
f 7/10/4 8/11/4 9/12/4
f 7/13/5 1/14/5 4/15/5
f 10/16/4 11/17/4 12/18/4
f 12/19/6 13/20/6 10/21/6
f 3/22/7 9/23/7 8/24/7
f 14/25/8 7/26/8 9/27/8
f 15/28/9 16/29/9 14/30/9
f 17/31/10 13/32/10 18/33/10
f 2/2/1 1/1/1 5/34/1
f 4/5/2 3/4/2 8/35/2
f 6/8/3 5/7/3 11/36/3
f 8/11/4 7/10/4 4/37/4
f 12/38/5 17/39/5 18/40/5
f 12/38/5 16/41/5 17/39/5
f 12/38/5 7/13/5 16/41/5
f 5/42/5 12/38/5 11/43/5
f 1/14/5 12/38/5 5/42/5
f 1/14/5 7/13/5 12/38/5
f 11/17/4 10/16/4 6/44/4
f 13/20/6 12/19/6 18/45/6
f 15/46/7 10/47/7 13/48/7
f 14/49/7 10/47/7 15/46/7
f 9/23/7 10/47/7 14/49/7
f 10/47/7 2/50/7 6/51/7
f 10/47/7 3/22/7 2/50/7
f 9/23/7 3/22/7 10/47/7
f 7/26/8 14/25/8 16/52/8
f 16/29/9 15/28/9 17/53/9
f 13/32/10 17/31/10 15/54/10

# 32 faces
